<?xml version="1.0" encoding="utf-8"?>
<!-- Generator: Adobe Illustrator 19.1.0, SVG Export Plug-In . SVG Version: 6.00 Build 0)  -->
<svg version="1.1" id="Layer_1" xmlns="http://www.w3.org/2000/svg" xmlns:xlink="http://www.w3.org/1999/xlink" x="0px" y="0px"
	 viewBox="0 0 64 64" enable-background="new 0 0 64 64" xml:space="preserve">
<g id="Two-folders">
	<path d="M52.9873009,18.9267998H28.2129002v-2.3955994c0-1.7968006-0.6991997-3.4843006-1.9687996-4.7529001
		c-1.2705002-1.2705002-2.9580002-1.9696999-4.7539005-1.9696999H4.4569998C1.999,9.8086004,0,11.8086004,0,14.2665997v41.2186966
		c0,2.6797028,2.1796999,4.8604012,4.8593998,4.8604012h48.1278992c2.6796989,0,4.8593979-2.1806984,4.8593979-4.8604012v-31.700098
		C57.8466988,21.1063995,55.6669998,18.9267998,52.9873009,18.9267998z M55.8466988,55.4852982
		c0,1.5772018-1.2821999,2.8604012-2.8593979,2.8604012H4.8593998C3.2822001,58.3456993,2,57.0625,2,55.4852982V14.2665997
		c0-1.3554993,1.1025-2.4579992,2.4569998-2.4579992H21.4902c1.2618008,0,2.4473,0.4911995,3.3398991,1.3837996
		c0.8916016,0.8915997,1.3828011,2.0770998,1.3828011,3.3388004v3.3955994c0,0.5527,0.4473,1,1,1h25.7744007
		c1.577198,0,2.8593979,1.2821999,2.8593979,2.8584003V55.4852982z"/>
	<path d="M59.1397018,12.7725H34.3671989v-2.3936005c0-1.7948999-0.6991997-3.4833994-1.9696999-4.7548995
		C31.1455002,4.3720999,29.4130993,3.6543,27.6445007,3.6543H10.6104002c-2.4581003,0-4.4571004,2.0000002-4.4571004,4.4580002
		c0,0.5527,0.4473,1,1,1c0.5528002,0,1.0000005-0.4473,1.0000005-1c0-1.3554997,1.1026001-2.4579997,2.4570999-2.4579997h17.0340996
		c1.2421989,0,2.4589996,0.5049,3.3388996,1.3837996c0.8925991,0.8935003,1.3837986,2.0801005,1.3837986,3.3407998V13.7725
		c0,0.5527,0.4473,1,1,1h25.7725029C60.7168007,14.7725,62,16.0557003,62,17.6327991v31.700201
		c0,1.5761986-1.2831993,2.8583984-2.8602982,2.8583984c-0.552803,0-1,0.4473-1,1s0.447197,1,1,1
		C61.8193016,54.1913986,64,52.0116997,64,49.3330002v-31.700201C64,14.9531002,61.8193016,12.7725,59.1397018,12.7725z"/>
</g>
<g>
</g>
<g>
</g>
<g>
</g>
<g>
</g>
<g>
</g>
<g>
</g>
<g>
</g>
<g>
</g>
<g>
</g>
<g>
</g>
<g>
</g>
<g>
</g>
<g>
</g>
<g>
</g>
<g>
</g>
</svg>
