<?xml version="1.0" encoding="iso-8859-1"?>
<!-- Generator: Adobe Illustrator 19.0.0, SVG Export Plug-In . SVG Version: 6.00 Build 0)  -->
<svg version="1.1" id="Capa_1" xmlns="http://www.w3.org/2000/svg" xmlns:xlink="http://www.w3.org/1999/xlink" x="0px" y="0px"
	 viewBox="0 0 384 384" style="enable-background:new 0 0 384 384;" xml:space="preserve">
<polygon style="fill:#EFEEEE;" points="64,0 64,384 288,384 384,288 384,0 "/>
<polygon style="fill:#ABABAB;" points="288,288 288,384 384,288 "/>
<polygon style="fill:#DEDEDD;" points="192,384 288,384 288,288 "/>
<path style="fill:#8AC640;" d="M0,96v112h256V96H0z"/>
<g>
	<path style="fill:#010101;" d="M67.232,117.856L85.376,186.4H70.992l-3.168-14.496h-18.24L46.4,186.4H32l18.144-68.544
		L67.232,117.856z M65.408,160.576l-6.624-30.816h-0.192l-6.624,30.816H65.408z"/>
	<path style="fill:#010101;" d="M110.912,167.008c0,1.6,0.144,3.056,0.384,4.352c0.272,1.312,0.736,2.416,1.44,3.312
		c0.704,0.912,1.664,1.616,2.848,2.128c1.168,0.496,2.672,0.768,4.448,0.768c2.128,0,4.016-0.688,5.712-2.064
		c1.68-1.376,2.544-3.52,2.544-6.384c0-1.536-0.224-2.864-0.624-3.984c-0.416-1.12-1.104-2.128-2.064-3.008
		c-0.976-0.912-2.24-1.712-3.792-2.448s-3.504-1.488-5.808-2.256c-3.056-1.024-5.712-2.16-7.968-3.376
		c-2.24-1.2-4.112-2.624-5.616-4.272c-1.504-1.632-2.608-3.52-3.312-5.664c-0.704-2.16-1.056-4.624-1.056-7.456
		c0-6.784,1.888-11.824,5.664-15.152c3.76-3.328,8.96-4.992,15.552-4.992c3.072,0,5.904,0.336,8.496,1.008s4.832,1.744,6.72,3.264
		c1.888,1.504,3.36,3.424,4.416,5.744c1.04,2.336,1.584,5.136,1.584,8.4v1.92h-13.248c0-3.264-0.576-5.776-1.712-7.552
		c-1.152-1.744-3.072-2.64-5.76-2.64c-1.536,0-2.816,0.24-3.84,0.672c-1.008,0.448-1.84,1.04-2.448,1.776s-1.04,1.616-1.248,2.576
		c-0.24,0.96-0.336,1.952-0.336,2.976c0,2.128,0.448,3.888,1.344,5.328c0.896,1.456,2.816,2.784,5.76,3.984l10.656,4.608
		c2.624,1.152,4.768,2.352,6.416,3.616c1.664,1.248,3.008,2.592,3.984,4.032c0.992,1.44,1.68,3.008,2.064,4.752
		c0.384,1.712,0.576,3.648,0.576,5.744c0,7.232-2.096,12.496-6.288,15.792s-10.032,4.96-17.52,4.96
		c-7.808,0-13.392-1.696-16.768-5.088c-3.36-3.392-5.024-8.256-5.024-14.592v-2.784h13.824L110.912,167.008L110.912,167.008z"/>
	<path style="fill:#010101;" d="M183.392,117.84c3.52,0,6.48,0.608,8.896,1.792c2.384,1.184,4.336,2.736,5.792,4.656
		s2.528,4.112,3.168,6.576c0.64,2.448,0.96,4.976,0.96,7.536c0,3.52-0.512,6.592-1.584,9.216c-1.04,2.624-2.528,4.768-4.416,6.416
		c-1.872,1.664-4.176,2.928-6.864,3.744c-2.688,0.816-5.664,1.248-8.928,1.248h-7.392v27.36H159.2V117.84L183.392,117.84
		L183.392,117.84z M179.168,148.896c2.752,0,4.976-0.848,6.672-2.512c1.68-1.664,2.544-4.256,2.544-7.776
		c0-3.456-0.736-6.08-2.224-7.872c-1.472-1.776-3.92-2.688-7.392-2.688h-5.744v20.848L179.168,148.896L179.168,148.896z"/>
</g>
<g>
</g>
<g>
</g>
<g>
</g>
<g>
</g>
<g>
</g>
<g>
</g>
<g>
</g>
<g>
</g>
<g>
</g>
<g>
</g>
<g>
</g>
<g>
</g>
<g>
</g>
<g>
</g>
<g>
</g>
</svg>
