<?xml version="1.0" encoding="iso-8859-1"?>
<!-- Generator: Adobe Illustrator 19.0.0, SVG Export Plug-In . SVG Version: 6.00 Build 0)  -->
<svg version="1.1" id="Capa_1" xmlns="http://www.w3.org/2000/svg" xmlns:xlink="http://www.w3.org/1999/xlink" x="0px" y="0px"
	 viewBox="0 0 384 384" style="enable-background:new 0 0 384 384;" xml:space="preserve">
<linearGradient id="SVGID_1_" gradientUnits="userSpaceOnUse" x1="-91.8763" y1="549.6123" x2="-39.0253" y2="496.7663" gradientTransform="matrix(8 0 0 -8 844.34 4474.2383)">
	<stop  offset="0" style="stop-color:#EFEEEE"/>
	<stop  offset="1" style="stop-color:#DEDEDD"/>
</linearGradient>
<polygon style="fill:url(#SVGID_1_);" points="64,0 64,384 288,384 384,288 384,0 "/>
<polygon style="fill:#ABABAB;" points="288,288 288,384 384,288 "/>
<polygon style="fill:#DEDEDD;" points="192,384 288,384 288,288 "/>
<path style="fill:#387639;" d="M0,96v112h256V96H0z"/>
<g>
	<path style="fill:#FFFFFF;" d="M67.232,117.856L85.376,186.4H70.992l-3.168-14.496h-18.24L46.4,186.4H32l18.144-68.544
		L67.232,117.856z M65.408,160.576l-6.624-30.816h-0.192l-6.624,30.816H65.408z"/>
	<path style="fill:#FFFFFF;" d="M117.824,168.544h0.288l10.192-50.688h14.304l-15.76,68.544h-17.76l-15.744-68.544h14.784
		L117.824,168.544z"/>
	<path style="fill:#FFFFFF;" d="M157.952,117.856h13.824V186.4h-13.824V117.856z"/>
</g>
<g>
</g>
<g>
</g>
<g>
</g>
<g>
</g>
<g>
</g>
<g>
</g>
<g>
</g>
<g>
</g>
<g>
</g>
<g>
</g>
<g>
</g>
<g>
</g>
<g>
</g>
<g>
</g>
<g>
</g>
</svg>
