<?xml version="1.0" encoding="iso-8859-1"?>
<!-- Generator: Adobe Illustrator 19.0.0, SVG Export Plug-In . SVG Version: 6.00 Build 0)  -->
<svg version="1.1" id="Capa_1" xmlns="http://www.w3.org/2000/svg" xmlns:xlink="http://www.w3.org/1999/xlink" x="0px" y="0px"
	 viewBox="0 0 384 384" style="enable-background:new 0 0 384 384;" xml:space="preserve">
<linearGradient id="SVGID_1_" gradientUnits="userSpaceOnUse" x1="-88.5697" y1="549.6119" x2="-35.7267" y2="496.7659" gradientTransform="matrix(8 0 0 -8 817.908 4474.2383)">
	<stop  offset="0" style="stop-color:#EFEEEE"/>
	<stop  offset="1" style="stop-color:#DEDEDD"/>
</linearGradient>
<polygon style="fill:url(#SVGID_1_);" points="64,0 64,384 288,384 384,288 384,0 "/>
<polygon style="fill:#ABABAB;" points="288,288 288,384 384,288 "/>
<polygon style="fill:#DEDEDD;" points="192,384 288,384 288,288 "/>
<path style="fill:#D9AD2B;" d="M0,96v112h256V96H0z"/>
<g>
	<path style="fill:#010101;" d="M59.936,117.856c2.816,0,5.424,0.304,7.824,0.864c2.384,0.576,4.464,1.552,6.192,2.896
		s3.072,3.136,4.032,5.376c0.976,2.24,1.44,4.992,1.44,8.256c0,3.712-0.864,6.912-2.592,9.568c-1.712,2.656-4.32,4.448-7.76,5.424
		v0.16c3.84,0.512,6.88,2.144,9.12,4.896c2.24,2.768,3.36,6.432,3.36,11.04c0,2.688-0.352,5.248-1.056,7.664
		c-0.704,2.432-1.904,4.56-3.6,6.384s-3.904,3.28-6.624,4.368c-2.736,1.104-6.112,1.648-10.144,1.648H36.8v-68.544L59.936,117.856z
		 M54.56,145.968c3.84,0,6.64-0.672,8.4-2.048c1.744-1.376,2.64-3.68,2.64-6.96s-0.816-5.584-2.4-6.928
		c-1.584-1.344-4.128-2.016-7.584-2.016h-4.992v17.952L54.56,145.968L54.56,145.968z M56,176.24c3.328,0,6.016-0.736,8.064-2.224
		c2.048-1.472,3.072-4.192,3.072-8.16c0-1.984-0.288-3.632-0.816-4.944c-0.544-1.312-1.28-2.368-2.224-3.168
		c-0.912-0.784-2.016-1.36-3.296-1.68s-2.688-0.464-4.224-0.464h-5.952v20.64H56z"/>
	<path style="fill:#010101;" d="M116.768,117.856l9.792,48.384h0.192l9.888-48.384h20.448V186.4h-12.672v-54.72h-0.208
		l-12.192,54.72H121.28l-12.192-54.72h-0.192v54.72H96.224v-68.544L116.768,117.856z"/>
	<path style="fill:#010101;" d="M196.944,117.84c3.52,0,6.464,0.608,8.88,1.792c2.416,1.184,4.336,2.736,5.808,4.656
		c1.472,1.92,2.528,4.112,3.168,6.576c0.624,2.448,0.96,4.976,0.96,7.536c0,3.52-0.528,6.592-1.584,9.216
		c-1.056,2.624-2.528,4.768-4.416,6.416c-1.888,1.664-4.176,2.928-6.864,3.744c-2.688,0.816-5.664,1.248-8.944,1.248h-7.392v27.36
		h-13.824V117.84L196.944,117.84L196.944,117.84z M192.704,148.896c2.752,0,4.992-0.848,6.672-2.512
		c1.696-1.664,2.544-4.256,2.544-7.776c0-3.456-0.736-6.08-2.208-7.872c-1.472-1.776-3.936-2.688-7.392-2.688h-5.76v20.848
		L192.704,148.896L192.704,148.896z"/>
</g>
<g>
</g>
<g>
</g>
<g>
</g>
<g>
</g>
<g>
</g>
<g>
</g>
<g>
</g>
<g>
</g>
<g>
</g>
<g>
</g>
<g>
</g>
<g>
</g>
<g>
</g>
<g>
</g>
<g>
</g>
</svg>
