<?xml version="1.0" encoding="iso-8859-1"?>
<!-- Generator: Adobe Illustrator 19.0.0, SVG Export Plug-In . SVG Version: 6.00 Build 0)  -->
<svg version="1.1" id="Capa_1" xmlns="http://www.w3.org/2000/svg" xmlns:xlink="http://www.w3.org/1999/xlink" x="0px" y="0px"
	 viewBox="0 0 384 384" style="enable-background:new 0 0 384 384;" xml:space="preserve">
<polygon style="fill:#EFEEEE;" points="64,0 64,384 288,384 384,288 384,0 "/>
<polygon style="fill:#ABABAB;" points="288,288 288,384 384,288 "/>
<polygon style="fill:#DEDEDD;" points="192,384 288,384 288,288 "/>
<path style="fill:#284B5B;" d="M0,96v112h256V96H0z"/>
<g>
	<path style="fill:#FFFFFF;" d="M58.192,130.112c-1.184-2.288-3.344-3.424-6.48-3.424c-1.728,0-3.136,0.464-4.272,1.408
		c-1.12,0.928-2,2.416-2.64,4.496c-0.64,2.08-1.088,4.8-1.344,8.176c-0.272,3.36-0.384,7.472-0.384,12.336
		c0,5.184,0.192,9.376,0.528,12.576c0.336,3.2,0.912,5.664,1.632,7.44c0.736,1.76,1.664,2.944,2.768,3.536
		c1.12,0.608,2.432,0.928,3.904,0.928c1.216,0,2.336-0.208,3.408-0.624c1.04-0.416,1.968-1.248,2.72-2.496
		c0.784-1.248,1.392-3.008,1.84-5.28c0.432-2.272,0.656-5.264,0.656-8.976h13.824c0,3.696-0.288,7.232-0.864,10.56
		s-1.664,6.24-3.216,8.736c-1.568,2.48-3.776,4.432-6.624,5.84c-2.848,1.408-6.528,2.128-11.088,2.128
		c-5.168,0-9.312-0.848-12.368-2.496c-3.056-1.664-5.424-4.064-7.056-7.2c-1.632-3.136-2.688-6.88-3.152-11.232
		c-0.48-4.336-0.72-9.152-0.72-14.384c0-5.184,0.24-9.968,0.72-14.352c0.464-4.368,1.536-8.144,3.152-11.28
		c1.648-3.12,4-5.584,7.056-7.344c3.056-1.744,7.2-2.64,12.368-2.64c4.944,0,8.816,0.8,11.664,2.4
		c2.848,1.6,4.992,3.632,6.384,6.096c1.392,2.464,2.288,5.12,2.624,7.968c0.352,2.848,0.528,5.52,0.528,8.016H59.968
		C59.968,136,59.376,132.368,58.192,130.112z"/>
	<path style="fill:#FFFFFF;" d="M130.128,117.856v11.328h-24.464v16.128h23.024v11.328h-23.024v29.76h-13.84v-68.544
		L130.128,117.856z"/>
	<path style="fill:#FFFFFF;" d="M166.72,117.856l9.776,48.384h0.192l9.904-48.384h20.432V186.4h-12.672v-54.72h-0.208l-12.192,54.72
		H171.2l-12.192-54.72h-0.192v54.72h-12.688v-68.544L166.72,117.856z"/>
</g>
<g>
</g>
<g>
</g>
<g>
</g>
<g>
</g>
<g>
</g>
<g>
</g>
<g>
</g>
<g>
</g>
<g>
</g>
<g>
</g>
<g>
</g>
<g>
</g>
<g>
</g>
<g>
</g>
<g>
</g>
</svg>
