<?xml version="1.0" encoding="iso-8859-1"?>
<!-- Generator: Adobe Illustrator 19.0.0, SVG Export Plug-In . SVG Version: 6.00 Build 0)  -->
<svg version="1.1" id="Capa_1" xmlns="http://www.w3.org/2000/svg" xmlns:xlink="http://www.w3.org/1999/xlink" x="0px" y="0px"
	 viewBox="0 0 384 384" style="enable-background:new 0 0 384 384;" xml:space="preserve">
<polygon style="fill:#EFEEEE;" points="64,0 64,384 288,384 384,288 384,0 "/>
<polygon style="fill:#ABABAB;" points="288,288 288,384 384,288 "/>
<polygon style="fill:#DEDEDD;" points="192,384 288,384 288,288 "/>
<path style="fill:#CB5641;" d="M0,96v112h256V96H0z"/>
<g>
	<path style="fill:#FFFFFF;" d="M64.32,130.112c-1.184-2.288-3.344-3.424-6.48-3.424c-1.728,0-3.152,0.464-4.272,1.408
		c-1.12,0.928-2,2.416-2.64,4.496s-1.088,4.8-1.344,8.176c-0.272,3.36-0.384,7.472-0.384,12.336c0,5.184,0.176,9.376,0.528,12.576
		c0.336,3.2,0.896,5.664,1.632,7.44s1.664,2.96,2.784,3.552c1.12,0.608,2.416,0.928,3.888,0.928c1.216,0,2.352-0.208,3.408-0.624
		s1.968-1.248,2.736-2.496c0.784-1.248,1.392-3.008,1.824-5.28c0.448-2.272,0.672-5.264,0.672-8.976H80.48
		c0,3.696-0.288,7.232-0.864,10.56s-1.664,6.24-3.216,8.736c-1.584,2.48-3.776,4.432-6.624,5.84
		c-2.848,1.408-6.544,2.128-11.088,2.128c-5.168,0-9.312-0.848-12.368-2.496c-3.072-1.664-5.424-4.064-7.056-7.2
		s-2.688-6.88-3.168-11.232c-0.464-4.336-0.72-9.152-0.72-14.384c0-5.184,0.256-9.968,0.72-14.352
		c0.48-4.368,1.552-8.144,3.168-11.28c1.648-3.12,3.984-5.584,7.056-7.344c3.056-1.744,7.2-2.64,12.368-2.64
		c4.944,0,8.816,0.8,11.664,2.4c2.848,1.6,4.976,3.632,6.368,6.096s2.304,5.12,2.64,7.968c0.352,2.848,0.528,5.52,0.528,8.016H66.08
		C66.08,136,65.488,132.368,64.32,130.112z"/>
	<path style="fill:#FFFFFF;" d="M122.144,117.856c3.52,0,6.48,0.592,8.896,1.776c2.384,1.184,4.336,2.736,5.792,4.656
		c1.456,1.92,2.528,4.112,3.168,6.576c0.64,2.448,0.96,4.976,0.96,7.536c0,3.52-0.512,6.592-1.584,9.216
		c-1.04,2.624-2.528,4.768-4.416,6.416c-1.872,1.664-4.176,2.928-6.864,3.744c-2.688,0.816-5.664,1.264-8.928,1.264h-7.392v27.36
		H97.952v-68.544L122.144,117.856z M117.92,148.896c2.752,0,4.976-0.848,6.672-2.512c1.68-1.664,2.544-4.256,2.544-7.776
		c0-3.456-0.736-6.08-2.224-7.872c-1.472-1.776-3.92-2.688-7.392-2.688h-5.744v20.848L117.92,148.896L117.92,148.896z"/>
	<path style="fill:#FFFFFF;" d="M181.584,117.84c3.52,0,6.464,0.608,8.88,1.792s4.336,2.736,5.808,4.656
		c1.472,1.92,2.528,4.112,3.168,6.576c0.624,2.448,0.96,4.976,0.96,7.536c0,3.52-0.528,6.592-1.584,9.216
		c-1.056,2.624-2.528,4.768-4.416,6.416c-1.888,1.664-4.176,2.928-6.864,3.744c-2.688,0.816-5.664,1.248-8.944,1.248H171.2v27.36
		h-13.824V117.84L181.584,117.84L181.584,117.84z M177.344,148.896c2.752,0,4.992-0.848,6.672-2.512
		c1.696-1.664,2.544-4.256,2.544-7.776c0-3.456-0.736-6.08-2.208-7.872c-1.472-1.776-3.936-2.688-7.392-2.688h-5.76v20.848
		L177.344,148.896L177.344,148.896z"/>
</g>
<g>
</g>
<g>
</g>
<g>
</g>
<g>
</g>
<g>
</g>
<g>
</g>
<g>
</g>
<g>
</g>
<g>
</g>
<g>
</g>
<g>
</g>
<g>
</g>
<g>
</g>
<g>
</g>
<g>
</g>
</svg>
