<?xml version="1.0" encoding="iso-8859-1"?>
<!-- Generator: Adobe Illustrator 19.0.0, SVG Export Plug-In . SVG Version: 6.00 Build 0)  -->
<svg version="1.1" id="Capa_1" xmlns="http://www.w3.org/2000/svg" xmlns:xlink="http://www.w3.org/1999/xlink" x="0px" y="0px"
	 viewBox="0 0 384 384" style="enable-background:new 0 0 384 384;" xml:space="preserve">
<polygon style="fill:#EFEEEE;" points="64,0 64,384 288,384 384,288 384,0 "/>
<polygon style="fill:#ABABAB;" points="288,288 288,384 384,288 "/>
<polygon style="fill:#DEDEDD;" points="192,384 288,384 288,288 "/>
<path style="fill:#4E95D0;" d="M0,96v112h256V96L0,96L0,96z"/>
<g>
	<path style="fill:#FFFFFF;" d="M60.128,117.856c4.816,0,8.672,0.784,11.632,2.352c2.944,1.568,5.232,3.792,6.864,6.72
		c1.648,2.912,2.736,6.4,3.312,10.512c0.576,4.096,0.864,8.672,0.864,13.712c0,6.016-0.352,11.248-1.088,15.696
		c-0.736,4.432-2,8.112-3.792,10.992c-1.792,2.896-4.192,5.024-7.2,6.432c-3.04,1.424-6.848,2.128-11.456,2.128H37.472v-68.544
		L60.128,117.856z M57.44,176.24c2.432,0,4.384-0.416,5.856-1.248s2.64-2.208,3.504-4.128c0.88-1.92,1.456-4.448,1.728-7.6
		c0.288-3.12,0.432-7.024,0.432-11.696c0-3.904-0.144-7.328-0.384-10.288c-0.256-2.944-0.784-5.392-1.584-7.344
		c-0.816-1.952-1.984-3.424-3.568-4.4c-1.568-0.992-3.664-1.504-6.288-1.504h-5.84v48.208L57.44,176.24z"/>
	<path style="fill:#FFFFFF;" d="M100.784,137.776c0.48-4.368,1.552-8.144,3.168-11.28c1.648-3.12,3.984-5.584,7.056-7.344
		c3.056-1.744,7.2-2.64,12.368-2.64c5.184,0,9.312,0.896,12.384,2.64c3.056,1.76,5.424,4.224,7.04,7.344
		c1.648,3.136,2.688,6.912,3.168,11.28c0.48,4.384,0.72,9.168,0.72,14.352c0,5.232-0.24,10.048-0.72,14.384
		c-0.48,4.352-1.536,8.096-3.168,11.232s-3.984,5.536-7.04,7.2c-3.072,1.664-7.2,2.496-12.384,2.496
		c-5.168,0-9.312-0.848-12.368-2.496c-3.072-1.664-5.424-4.064-7.056-7.2s-2.688-6.88-3.168-11.232
		c-0.464-4.336-0.72-9.152-0.72-14.384C100.064,146.96,100.32,142.176,100.784,137.776z M114.24,163.888
		c0.224,3.232,0.672,5.856,1.344,7.872s1.632,3.488,2.88,4.416s2.896,1.392,4.944,1.392s3.696-0.464,4.96-1.392
		c1.248-0.944,2.208-2.4,2.88-4.416s1.12-4.64,1.344-7.872s0.336-7.136,0.336-11.744s-0.128-8.512-0.336-11.712
		s-0.672-5.824-1.344-7.872s-1.632-3.536-2.88-4.448c-1.248-0.944-2.912-1.408-4.96-1.408s-3.68,0.464-4.944,1.408
		c-1.248,0.928-2.208,2.4-2.88,4.448s-1.12,4.672-1.344,7.872c-0.24,3.2-0.336,7.104-0.336,11.712S114,160.656,114.24,163.888z"/>
	<path style="fill:#FFFFFF;" d="M191.984,130.112c-1.184-2.288-3.344-3.424-6.48-3.424c-1.712,0-3.136,0.464-4.272,1.408
		c-1.12,0.928-2,2.416-2.64,4.496s-1.088,4.8-1.344,8.176c-0.256,3.36-0.368,7.472-0.368,12.336c0,5.184,0.176,9.376,0.512,12.576
		c0.352,3.2,0.912,5.664,1.648,7.44s1.664,2.96,2.784,3.552c1.12,0.608,2.416,0.928,3.888,0.928c1.216,0,2.336-0.208,3.408-0.624
		c1.04-0.416,1.968-1.248,2.736-2.496s1.376-3.008,1.824-5.28c0.432-2.272,0.672-5.264,0.672-8.976h13.808
		c0,3.696-0.288,7.232-0.864,10.56c-0.576,3.328-1.648,6.24-3.216,8.736c-1.568,2.48-3.76,4.432-6.624,5.84
		c-2.848,1.408-6.528,2.128-11.072,2.128c-5.184,0-9.312-0.848-12.384-2.496c-3.056-1.664-5.424-4.064-7.04-7.2
		c-1.648-3.136-2.688-6.88-3.168-11.232c-0.48-4.336-0.72-9.152-0.72-14.384c0-5.184,0.24-9.968,0.72-14.352
		c0.48-4.368,1.536-8.144,3.168-11.28c1.632-3.12,3.984-5.584,7.04-7.344c3.072-1.744,7.2-2.64,12.384-2.64
		c4.928,0,8.816,0.8,11.664,2.4c2.848,1.6,4.992,3.632,6.384,6.096c1.392,2.464,2.288,5.12,2.64,7.968
		c0.336,2.848,0.528,5.52,0.528,8.016h-13.84C193.76,136,193.168,132.368,191.984,130.112z"/>
</g>
<g>
</g>
<g>
</g>
<g>
</g>
<g>
</g>
<g>
</g>
<g>
</g>
<g>
</g>
<g>
</g>
<g>
</g>
<g>
</g>
<g>
</g>
<g>
</g>
<g>
</g>
<g>
</g>
<g>
</g>
</svg>
