<?xml version="1.0" encoding="iso-8859-1"?>
<!-- Generator: Adobe Illustrator 19.0.0, SVG Export Plug-In . SVG Version: 6.00 Build 0)  -->
<svg version="1.1" id="Capa_1" xmlns="http://www.w3.org/2000/svg" xmlns:xlink="http://www.w3.org/1999/xlink" x="0px" y="0px"
	 viewBox="0 0 384 384" style="enable-background:new 0 0 384 384;" xml:space="preserve">
<linearGradient id="SVGID_1_" gradientUnits="userSpaceOnUse" x1="-89.0662" y1="549.4557" x2="-36.2262" y2="496.6158" gradientTransform="matrix(8 0 0 -8 821.884 4473)">
	<stop  offset="0" style="stop-color:#EFEEEE"/>
	<stop  offset="1" style="stop-color:#DEDEDD"/>
</linearGradient>
<polygon style="fill:url(#SVGID_1_);" points="64,0 64,384 288,384 384,288 384,0 "/>
<polygon style="fill:#ABABAB;" points="288,288 288,384 384,288 "/>
<polygon style="fill:#DEDEDD;" points="192,384 288,384 288,288 "/>
<path style="fill:#F47821;" d="M0,96v112h256V96H0z"/>
<g>
	<path style="fill:#FFFFFF;" d="M75.12,129.184H50.624v16.128h23.04v11.328h-23.04v18.432h25.44V186.4H36.8v-68.544h38.32
		L75.12,129.184L75.12,129.184z"/>
	<path style="fill:#FFFFFF;" d="M116.768,117.856c3.52,0,6.48,0.592,8.896,1.776c2.384,1.184,4.336,2.736,5.792,4.656
		s2.528,4.112,3.168,6.576c0.64,2.448,0.96,4.976,0.96,7.536c0,3.52-0.512,6.592-1.584,9.216c-1.04,2.624-2.528,4.768-4.416,6.416
		c-1.872,1.664-4.176,2.928-6.864,3.744s-5.664,1.264-8.928,1.264H106.4v27.36H92.576v-68.544L116.768,117.856z M112.544,148.896
		c2.752,0,4.976-0.848,6.672-2.512c1.68-1.664,2.544-4.256,2.544-7.776c0-3.456-0.736-6.08-2.224-7.872
		c-1.472-1.776-3.92-2.688-7.392-2.688H106.4v20.848H112.544z"/>
	<path style="fill:#FFFFFF;" d="M163.136,167.008c0,1.6,0.128,3.056,0.368,4.352c0.272,1.312,0.736,2.416,1.44,3.312
		c0.704,0.912,1.664,1.616,2.848,2.128c1.168,0.496,2.672,0.768,4.448,0.768c2.128,0,4.016-0.688,5.712-2.064
		c1.68-1.376,2.544-3.52,2.544-6.384c0-1.536-0.224-2.864-0.624-3.984c-0.416-1.12-1.104-2.128-2.064-3.008
		c-0.976-0.912-2.24-1.712-3.792-2.448s-3.504-1.488-5.808-2.256c-3.056-1.024-5.712-2.16-7.968-3.376
		c-2.24-1.2-4.112-2.624-5.616-4.272c-1.504-1.632-2.608-3.52-3.312-5.664c-0.704-2.16-1.056-4.624-1.056-7.456
		c0-6.784,1.888-11.824,5.664-15.152c3.76-3.328,8.96-4.992,15.552-4.992c3.072,0,5.904,0.336,8.496,1.008
		c2.592,0.672,4.832,1.744,6.72,3.264c1.888,1.504,3.36,3.424,4.416,5.744c1.04,2.336,1.584,5.136,1.584,8.4v1.92H179.44
		c0-3.264-0.576-5.776-1.712-7.552c-1.152-1.744-3.072-2.64-5.76-2.64c-1.536,0-2.816,0.24-3.84,0.672
		c-1.008,0.448-1.84,1.04-2.448,1.776s-1.008,1.584-1.232,2.544c-0.24,0.96-0.336,1.952-0.336,2.976
		c0,2.128,0.448,3.888,1.344,5.328c0.896,1.456,2.816,2.784,5.76,3.984l10.656,4.608c2.624,1.152,4.768,2.352,6.416,3.616
		c1.664,1.248,3.008,2.592,3.984,4.032c0.992,1.44,1.68,3.008,2.064,4.752c0.384,1.712,0.576,3.648,0.576,5.744
		c0,7.232-2.096,12.496-6.288,15.792c-4.192,3.296-10.032,4.96-17.52,4.96c-7.808,0-13.392-1.696-16.768-5.088
		c-3.36-3.392-5.024-8.256-5.024-14.592v-2.784h13.824L163.136,167.008z"/>
</g>
<g>
</g>
<g>
</g>
<g>
</g>
<g>
</g>
<g>
</g>
<g>
</g>
<g>
</g>
<g>
</g>
<g>
</g>
<g>
</g>
<g>
</g>
<g>
</g>
<g>
</g>
<g>
</g>
<g>
</g>
</svg>
