<?xml version="1.0" encoding="iso-8859-1"?>
<!-- Generator: Adobe Illustrator 19.0.0, SVG Export Plug-In . SVG Version: 6.00 Build 0)  -->
<svg version="1.1" id="Capa_1" xmlns="http://www.w3.org/2000/svg" xmlns:xlink="http://www.w3.org/1999/xlink" x="0px" y="0px"
	 viewBox="0 0 384 384" style="enable-background:new 0 0 384 384;" xml:space="preserve">
<polygon style="fill:#EFEEEE;" points="64.004,0 64.004,384 287.996,384 383.996,288 383.996,0 "/>
<polygon style="fill:#ABABAB;" points="287.996,288 287.996,384 383.996,288 "/>
<polygon style="fill:#DEDEDD;" points="191.996,384 287.996,384 287.996,288 "/>
<path style="fill:#2B84C3;" d="M0.004,96v112h256V96H0.004z"/>
<g>
	<path style="fill:#FFFFFF;" d="M30.956,117.856v26.208h16.128v-26.208h13.824V186.4H47.084v-30.432H30.956V186.4H17.132v-68.544
		L30.956,117.856z"/>
	<path style="fill:#FFFFFF;" d="M116.788,129.184h-14.976V186.4h-13.84v-57.216h-14.96v-11.328h43.776V129.184z"/>
	<path style="fill:#FFFFFF;" d="M150.468,117.856l9.792,48.384h0.192l9.888-48.384h20.448V186.4h-12.672v-54.72h-0.208
		l-12.192,54.72h-10.752l-12.192-54.72h-0.192v54.72h-12.672v-68.544L150.468,117.856z"/>
	<path style="fill:#FFFFFF;" d="M204.164,117.856h13.84v57.216h24.48V186.4h-38.32V117.856z"/>
</g>
<g>
</g>
<g>
</g>
<g>
</g>
<g>
</g>
<g>
</g>
<g>
</g>
<g>
</g>
<g>
</g>
<g>
</g>
<g>
</g>
<g>
</g>
<g>
</g>
<g>
</g>
<g>
</g>
<g>
</g>
</svg>
