<?xml version="1.0" encoding="iso-8859-1"?>
<!-- Generator: Adobe Illustrator 19.0.0, SVG Export Plug-In . SVG Version: 6.00 Build 0)  -->
<svg version="1.1" id="Capa_1" xmlns="http://www.w3.org/2000/svg" xmlns:xlink="http://www.w3.org/1999/xlink" x="0px" y="0px"
	 viewBox="0 0 384 384" style="enable-background:new 0 0 384 384;" xml:space="preserve">
<polygon style="fill:#EFEEEE;" points="64,0 64,384 288,384 384,288 384,0 "/>
<polygon style="fill:#ABABAB;" points="288,288 288,384 384,288 "/>
<polygon style="fill:#DEDEDD;" points="192,384 288,384 288,288 "/>
<path style="fill:#CB5641;" d="M0,96v112h256V96H0z"/>
<g>
	<path style="fill:#FFFFFF;" d="M30.816,115.168H44.64v68.544H30.816V115.168z"/>
	<path style="fill:#FFFFFF;" d="M90.096,127.424c-1.184-2.288-3.344-3.424-6.48-3.424c-1.712,0-3.136,0.464-4.272,1.408
		c-1.12,0.928-2,2.416-2.64,4.496s-1.088,4.8-1.344,8.176c-0.256,3.36-0.368,7.472-0.368,12.336c0,5.184,0.176,9.376,0.512,12.576
		c0.352,3.2,0.912,5.664,1.648,7.44s1.664,2.96,2.784,3.552c1.12,0.608,2.416,0.928,3.888,0.928c1.216,0,2.336-0.208,3.408-0.624
		c1.04-0.416,1.968-1.248,2.736-2.496c0.768-1.248,1.376-3.008,1.824-5.28c0.432-2.272,0.672-5.264,0.672-8.976h13.808
		c0,3.696-0.288,7.232-0.864,10.56s-1.648,6.24-3.216,8.736c-1.568,2.48-3.76,4.432-6.624,5.84
		c-2.848,1.408-6.528,2.128-11.072,2.128c-5.184,0-9.312-0.848-12.384-2.496c-3.056-1.664-5.424-4.064-7.04-7.2
		c-1.648-3.136-2.688-6.88-3.168-11.232c-0.48-4.336-0.72-9.152-0.72-14.384c0-5.184,0.24-9.968,0.72-14.352
		c0.48-4.368,1.536-8.144,3.168-11.28c1.632-3.12,3.984-5.584,7.04-7.344c3.072-1.744,7.2-2.64,12.384-2.64
		c4.928,0,8.816,0.8,11.664,2.4c2.848,1.6,4.992,3.632,6.384,6.096s2.288,5.12,2.64,7.968c0.336,2.848,0.528,5.52,0.528,8.016
		h-13.84C91.872,133.312,91.28,129.68,90.096,127.424z"/>
	<path style="fill:#FFFFFF;" d="M132.976,164.336c0,1.6,0.128,3.056,0.368,4.352c0.272,1.312,0.736,2.416,1.44,3.312
		c0.704,0.912,1.664,1.616,2.848,2.128c1.168,0.496,2.672,0.768,4.448,0.768c2.128,0,4.016-0.688,5.712-2.064
		c1.68-1.376,2.544-3.52,2.544-6.384c0-1.536-0.224-2.864-0.624-3.984c-0.416-1.12-1.104-2.128-2.064-3.008
		c-0.976-0.912-2.24-1.712-3.792-2.448s-3.504-1.488-5.808-2.256c-3.056-1.024-5.712-2.16-7.968-3.376
		c-2.24-1.2-4.112-2.624-5.616-4.272c-1.504-1.632-2.608-3.52-3.312-5.664c-0.704-2.16-1.056-4.624-1.056-7.456
		c0-6.784,1.888-11.824,5.664-15.152c3.76-3.328,8.96-4.992,15.552-4.992c3.072,0,5.904,0.336,8.496,1.008
		c2.592,0.672,4.832,1.744,6.72,3.264c1.888,1.504,3.36,3.424,4.416,5.744c1.04,2.336,1.584,5.136,1.584,8.4v1.92H149.28
		c0-3.264-0.576-5.776-1.712-7.552c-1.152-1.744-3.072-2.64-5.76-2.64c-1.536,0-2.816,0.24-3.84,0.672
		c-1.008,0.448-1.84,1.04-2.448,1.776s-1.008,1.584-1.232,2.544c-0.24,0.96-0.336,1.952-0.336,2.976
		c0,2.128,0.448,3.888,1.344,5.328c0.896,1.456,2.816,2.784,5.76,3.984l10.656,4.608c2.624,1.152,4.768,2.352,6.416,3.616
		c1.664,1.248,3.008,2.592,3.984,4.032c0.992,1.44,1.68,3.008,2.064,4.752c0.384,1.712,0.576,3.648,0.576,5.744
		c0,7.232-2.096,12.496-6.288,15.792c-4.192,3.296-10.032,4.96-17.52,4.96c-7.808,0-13.392-1.696-16.768-5.088
		c-3.36-3.392-5.024-8.256-5.024-14.592v-2.784h13.824L132.976,164.336L132.976,164.336z"/>
</g>
<g>
</g>
<g>
</g>
<g>
</g>
<g>
</g>
<g>
</g>
<g>
</g>
<g>
</g>
<g>
</g>
<g>
</g>
<g>
</g>
<g>
</g>
<g>
</g>
<g>
</g>
<g>
</g>
<g>
</g>
</svg>
