<?xml version="1.0" encoding="iso-8859-1"?>
<!-- Generator: Adobe Illustrator 19.0.0, SVG Export Plug-In . SVG Version: 6.00 Build 0)  -->
<svg version="1.1" id="Capa_1" xmlns="http://www.w3.org/2000/svg" xmlns:xlink="http://www.w3.org/1999/xlink" x="0px" y="0px"
	 viewBox="0 0 384 384" style="enable-background:new 0 0 384 384;" xml:space="preserve">
<linearGradient id="SVGID_1_" gradientUnits="userSpaceOnUse" x1="-86.1533" y1="545.6279" x2="-33.3053" y2="492.7799" gradientTransform="matrix(8 0 0 -8 798.56 4442.3569)">
	<stop  offset="0" style="stop-color:#EFEEEE"/>
	<stop  offset="1" style="stop-color:#DEDEDD"/>
</linearGradient>
<polygon style="fill:url(#SVGID_1_);" points="64,0 64,384 288,384 384,288 384,0 "/>
<polygon style="fill:#ABABAB;" points="288,288 288,384 384,288 "/>
<polygon style="fill:#DEDEDD;" points="192,384 288,384 288,288 "/>
<path style="fill:#50B6E7;" d="M0,96v112h256V96L0,96L0,96z"/>
<g>
	<path style="fill:#010101;" d="M57.648,117.856l9.792,48.384h0.192l9.888-48.384h20.448V186.4H85.28v-54.72h-0.192L72.896,186.4
		H62.16l-12.192-54.72H49.76v54.72H37.088v-68.544H57.648z"/>
	<path style="fill:#010101;" d="M110.976,137.776c0.48-4.368,1.536-8.144,3.168-11.28c1.648-3.12,3.984-5.584,7.04-7.344
		c3.072-1.744,7.216-2.64,12.384-2.64c5.184,0,9.312,0.896,12.384,2.64c3.056,1.76,5.408,4.224,7.04,7.344
		c1.648,3.136,2.688,6.912,3.168,11.28c0.464,4.384,0.72,9.168,0.72,14.352c0,5.232-0.256,10.048-0.72,14.384
		c-0.48,4.352-1.536,8.096-3.168,11.232s-3.984,5.536-7.04,7.2c-3.072,1.664-7.2,2.496-12.384,2.496
		c-5.168,0-9.312-0.848-12.384-2.496c-3.056-1.664-5.408-4.064-7.04-7.2s-2.688-6.88-3.168-11.232
		c-0.464-4.336-0.72-9.152-0.72-14.384C110.256,146.96,110.496,142.176,110.976,137.776z M124.4,163.888
		c0.224,3.232,0.688,5.856,1.344,7.872c0.688,2.016,1.632,3.488,2.88,4.416s2.912,1.392,4.96,1.392s3.696-0.464,4.96-1.392
		c1.248-0.944,2.208-2.4,2.88-4.416s1.12-4.64,1.344-7.872s0.336-7.136,0.336-11.744s-0.128-8.512-0.336-11.712
		s-0.672-5.824-1.344-7.872s-1.632-3.536-2.88-4.448c-1.248-0.944-2.912-1.408-4.96-1.408s-3.696,0.464-4.96,1.408
		c-1.248,0.928-2.192,2.4-2.88,4.448c-0.656,2.048-1.12,4.672-1.344,7.872s-0.336,7.104-0.336,11.712S124.192,160.656,124.4,163.888
		z"/>
	<path style="fill:#010101;" d="M188.88,168.544h0.288l10.192-50.688h14.304L197.92,186.4h-17.76l-15.728-68.544h14.784
		L188.88,168.544z"/>
</g>
<g>
</g>
<g>
</g>
<g>
</g>
<g>
</g>
<g>
</g>
<g>
</g>
<g>
</g>
<g>
</g>
<g>
</g>
<g>
</g>
<g>
</g>
<g>
</g>
<g>
</g>
<g>
</g>
<g>
</g>
</svg>
