<?xml version="1.0" encoding="iso-8859-1"?>
<!-- Generator: Adobe Illustrator 19.0.0, SVG Export Plug-In . SVG Version: 6.00 Build 0)  -->
<svg version="1.1" id="Capa_1" xmlns="http://www.w3.org/2000/svg" xmlns:xlink="http://www.w3.org/1999/xlink" x="0px" y="0px"
	 viewBox="0 0 384 384" style="enable-background:new 0 0 384 384;" xml:space="preserve">
<linearGradient id="SVGID_1_" gradientUnits="userSpaceOnUse" x1="-89.3171" y1="553.7958" x2="-36.4711" y2="500.9509" gradientTransform="matrix(8 0 0 -8 823.872 4507.7041)">
	<stop  offset="0" style="stop-color:#EFEEEE"/>
	<stop  offset="1" style="stop-color:#DEDEDD"/>
</linearGradient>
<polygon style="fill:url(#SVGID_1_);" points="64,0 64,384 288,384 384,288 384,0 "/>
<polygon style="fill:#ABABAB;" points="288,288 288,384 384,288 "/>
<polygon style="fill:#DEDEDD;" points="192,384 288,384 288,288 "/>
<path style="fill:#527CA3;" d="M0,96v112h256V96L0,96L0,96z"/>
<g>
	<path style="fill:#FFFFFF;" d="M57.648,117.856l9.776,48.384h0.208l9.888-48.384h20.432V186.4H85.28v-54.72h-0.192L72.896,186.4
		H62.144l-12.192-54.72H49.76v54.72H37.088v-68.544H57.648z"/>
	<path style="fill:#FFFFFF;" d="M141.648,117.84c3.52,0,6.464,0.608,8.88,1.792s4.336,2.736,5.808,4.656s2.528,4.112,3.168,6.576
		c0.624,2.448,0.96,4.976,0.96,7.536c0,3.52-0.528,6.592-1.584,9.216c-1.056,2.624-2.528,4.768-4.416,6.416
		c-1.888,1.664-4.176,2.928-6.864,3.744s-5.664,1.248-8.944,1.248h-7.392v27.36H117.44V117.84L141.648,117.84L141.648,117.84z
		 M137.408,148.896c2.752,0,4.992-0.848,6.672-2.512c1.696-1.664,2.544-4.256,2.544-7.776c0-3.456-0.736-6.08-2.208-7.872
		c-1.472-1.776-3.936-2.688-7.392-2.688h-5.76v20.848L137.408,148.896L137.408,148.896z"/>
	<path style="fill:#FFFFFF;" d="M188.816,175.616c0.992,2.08,3.008,3.104,6,3.104c1.664,0,3.008-0.288,3.984-0.864
		c0.992-0.576,1.76-1.36,2.32-2.336c0.544-0.992,0.896-2.176,1.04-3.52c0.176-1.344,0.256-2.752,0.256-4.224
		c0-1.536-0.112-2.992-0.336-4.352c-0.224-1.392-0.656-2.608-1.296-3.696c-0.64-1.088-1.536-1.952-2.688-2.592
		c-1.136-0.64-2.688-0.96-4.608-0.96h-4.608v-9.024h4.512c1.472,0,2.704-0.304,3.696-0.912s1.776-1.408,2.384-2.4
		c0.608-0.992,1.056-2.128,1.344-3.408c0.304-1.28,0.432-2.624,0.432-4.032c0-3.264-0.544-5.568-1.632-6.912
		c-1.088-1.344-2.768-2.016-4.992-2.016c-1.472,0-2.672,0.272-3.6,0.816c-0.944,0.544-1.664,1.312-2.176,2.304
		c-0.496,0.992-0.848,2.176-0.992,3.52c-0.144,1.344-0.24,2.816-0.24,4.4h-12.672c0-6.784,1.68-11.824,5.072-15.12
		c3.392-3.28,8.352-4.944,14.896-4.944c6.208,0,11.008,1.408,14.432,4.224c3.424,2.832,5.136,7.232,5.136,13.248
		c0,4.096-0.912,7.44-2.736,10.032s-4.368,4.256-7.648,4.96v0.192c4.416,0.704,7.552,2.48,9.36,5.328
		c1.824,2.848,2.736,6.416,2.736,10.704c0,2.32-0.288,4.672-0.864,7.104c-0.576,2.416-1.68,4.64-3.36,6.624
		c-1.664,1.984-3.952,3.584-6.864,4.8c-2.928,1.216-6.736,1.824-11.472,1.824c-6.592,0-11.536-1.792-14.8-5.376
		c-3.248-3.6-4.896-8.672-4.896-15.264v-0.304h13.248C187.296,170.496,187.824,173.536,188.816,175.616z"/>
</g>
<g>
</g>
<g>
</g>
<g>
</g>
<g>
</g>
<g>
</g>
<g>
</g>
<g>
</g>
<g>
</g>
<g>
</g>
<g>
</g>
<g>
</g>
<g>
</g>
<g>
</g>
<g>
</g>
<g>
</g>
</svg>
