<?xml version="1.0" encoding="iso-8859-1"?>
<!-- Generator: Adobe Illustrator 19.0.0, SVG Export Plug-In . SVG Version: 6.00 Build 0)  -->
<svg version="1.1" id="Capa_1" xmlns="http://www.w3.org/2000/svg" xmlns:xlink="http://www.w3.org/1999/xlink" x="0px" y="0px"
	 viewBox="0 0 384 384" style="enable-background:new 0 0 384 384;" xml:space="preserve">
<linearGradient id="SVGID_1_" gradientUnits="userSpaceOnUse" x1="-89.5544" y1="553.7436" x2="-36.7124" y2="500.8936" gradientTransform="matrix(8 0 0 -8 825.776 4507.272)">
	<stop  offset="0" style="stop-color:#EFEEEE"/>
	<stop  offset="1" style="stop-color:#DEDEDD"/>
</linearGradient>
<polygon style="fill:url(#SVGID_1_);" points="64,0 64,384 288,384 384,288 384,0 "/>
<polygon style="fill:#ABABAB;" points="288,288 288,384 384,288 "/>
<polygon style="fill:#DEDEDD;" points="192,384 288,384 288,288 "/>
<path style="fill:#2F2E7C;" d="M0,96v112h256V96L0,96L0,96z"/>
<g>
	<path style="fill:#FFFFFF;" d="M57.648,117.856l9.776,48.384h0.208l9.888-48.384h20.432V186.4H85.28v-54.72h-0.192L72.896,186.4
		H62.144l-12.192-54.72H49.76v54.72H37.088v-68.544H57.648z"/>
	<path style="fill:#FFFFFF;" d="M137.792,117.84c3.52,0,6.464,0.608,8.88,1.792s4.32,2.736,5.808,4.656
		c1.472,1.92,2.528,4.112,3.168,6.576c0.624,2.448,0.96,4.976,0.96,7.536c0,3.52-0.528,6.592-1.584,9.216
		c-1.056,2.624-2.528,4.768-4.416,6.416c-1.888,1.664-4.176,2.928-6.864,3.744s-5.664,1.248-8.944,1.248h-7.392v27.36H113.6V117.84
		L137.792,117.84L137.792,117.84z M133.568,148.896c2.752,0,4.992-0.848,6.672-2.512c1.696-1.664,2.544-4.256,2.544-7.776
		c0-3.456-0.736-6.08-2.208-7.872c-1.472-1.776-3.936-2.688-7.392-2.688h-5.76v20.848L133.568,148.896L133.568,148.896z"/>
	<path style="fill:#FFFFFF;" d="M199.184,134.288c-0.288-1.344-0.752-2.576-1.392-3.696c-0.64-1.104-1.456-2.048-2.448-2.784
		s-2.192-1.104-3.6-1.104c-3.328,0-5.728,1.856-7.2,5.584c-1.472,3.696-2.208,9.856-2.208,18.416c0,4.112,0.128,7.808,0.368,11.136
		c0.272,3.328,0.72,6.16,1.392,8.496s1.648,4.128,2.896,5.376s2.864,1.872,4.848,1.872c0.832,0,1.728-0.24,2.736-0.672
		c0.992-0.448,1.92-1.12,2.784-2.016c0.88-0.912,1.6-2.032,2.16-3.408c0.576-1.376,0.88-3.008,0.88-4.864v-7.008h-9.12V149.44
		h22.368v36.96h-10.192v-6.336h-0.192c-1.664,2.704-3.664,4.592-6,5.712c-2.336,1.12-5.136,1.68-8.4,1.68
		c-4.224,0-7.664-0.752-10.32-2.224s-4.736-3.728-6.24-6.816c-1.52-3.072-2.512-6.864-3.024-11.376s-0.768-9.744-0.768-15.696
		c0-5.744,0.352-10.816,1.104-15.152c0.736-4.352,2-7.984,3.776-10.912c1.792-2.912,4.16-5.088,7.104-6.576
		c2.944-1.472,6.624-2.208,11.04-2.208c7.552,0,12.992,1.872,16.32,5.632c3.328,3.728,4.992,9.088,4.992,16.08h-13.232
		C199.632,136.944,199.472,135.632,199.184,134.288z"/>
</g>
<g>
</g>
<g>
</g>
<g>
</g>
<g>
</g>
<g>
</g>
<g>
</g>
<g>
</g>
<g>
</g>
<g>
</g>
<g>
</g>
<g>
</g>
<g>
</g>
<g>
</g>
<g>
</g>
<g>
</g>
</svg>
