<?xml version="1.0" encoding="iso-8859-1"?>
<!-- Generator: Adobe Illustrator 19.0.0, SVG Export Plug-In . SVG Version: 6.00 Build 0)  -->
<svg version="1.1" id="Capa_1" xmlns="http://www.w3.org/2000/svg" xmlns:xlink="http://www.w3.org/1999/xlink" x="0px" y="0px"
	 viewBox="0 0 384 384" style="enable-background:new 0 0 384 384;" xml:space="preserve">
<polygon style="fill:#EFEEEE;" points="64,0 64,384 288,384 384,288 384,0 "/>
<polygon style="fill:#ABABAB;" points="288,288 288,384 384,288 "/>
<polygon style="fill:#DEDEDD;" points="192,384 288,384 288,288 "/>
<path style="fill:#539AD4;" d="M0,96v112h256V96H0z"/>
<g>
	<path style="fill:#FFFFFF;" d="M36.08,137.776c0.48-4.368,1.552-8.144,3.168-11.28c1.648-3.12,3.984-5.584,7.056-7.344
		c3.056-1.744,7.2-2.64,12.368-2.64c5.184,0,9.312,0.896,12.384,2.64c3.056,1.76,5.424,4.224,7.04,7.344
		c1.648,3.136,2.688,6.912,3.168,11.28c0.48,4.384,0.72,9.168,0.72,14.352c0,5.232-0.24,10.048-0.72,14.384
		c-0.48,4.352-1.536,8.096-3.168,11.232s-3.984,5.536-7.04,7.2c-3.072,1.664-7.2,2.496-12.384,2.496
		c-5.168,0-9.312-0.848-12.368-2.496c-3.072-1.664-5.424-4.064-7.056-7.2s-2.688-6.88-3.168-11.232
		c-0.464-4.336-0.72-9.152-0.72-14.384C35.36,146.96,35.616,142.176,36.08,137.776z M49.536,163.888
		c0.224,3.232,0.672,5.856,1.344,7.872s1.632,3.488,2.88,4.416s2.896,1.392,4.944,1.392s3.696-0.464,4.96-1.392
		c1.248-0.944,2.208-2.4,2.88-4.416s1.12-4.64,1.344-7.872s0.336-7.136,0.336-11.744s-0.128-8.512-0.336-11.712
		c-0.208-3.2-0.672-5.824-1.344-7.872c-0.672-2.048-1.632-3.536-2.88-4.448c-1.248-0.944-2.912-1.408-4.96-1.408
		s-3.68,0.464-4.944,1.408c-1.248,0.928-2.208,2.4-2.88,4.448s-1.12,4.672-1.344,7.872c-0.24,3.2-0.336,7.104-0.336,11.712
		S49.296,160.656,49.536,163.888z"/>
	<path style="fill:#FFFFFF;" d="M139.904,129.184h-14.96V186.4h-13.84v-57.216H96.128v-11.328h43.776V129.184z"/>
	<path style="fill:#FFFFFF;" d="M193.76,117.856v11.328h-24.48v16.128h23.04v11.328h-23.04v29.76h-13.824v-68.544L193.76,117.856z"
		/>
</g>
<g>
</g>
<g>
</g>
<g>
</g>
<g>
</g>
<g>
</g>
<g>
</g>
<g>
</g>
<g>
</g>
<g>
</g>
<g>
</g>
<g>
</g>
<g>
</g>
<g>
</g>
<g>
</g>
<g>
</g>
</svg>
