<?xml version="1.0" encoding="iso-8859-1"?>
<!-- Generator: Adobe Illustrator 19.0.0, SVG Export Plug-In . SVG Version: 6.00 Build 0)  -->
<svg version="1.1" id="Capa_1" xmlns="http://www.w3.org/2000/svg" xmlns:xlink="http://www.w3.org/1999/xlink" x="0px" y="0px"
	 viewBox="0 0 384 384" style="enable-background:new 0 0 384 384;" xml:space="preserve">
<polygon style="fill:#EFEEEE;" points="64,0 64,384 288,384 384,288 384,0 "/>
<polygon style="fill:#ABABAB;" points="288,288 288,384 384,288 "/>
<polygon style="fill:#DEDEDD;" points="192,384 288,384 288,288 "/>
<path style="fill:#CB7B29;" d="M0,96v112h256V96H0z"/>
<g>
	<path style="fill:#FFFFFF;" d="M60.992,117.856c3.52,0,6.464,0.592,8.88,1.776s4.336,2.736,5.808,4.656s2.528,4.112,3.168,6.576
		c0.624,2.448,0.96,4.976,0.96,7.536c0,3.52-0.528,6.592-1.584,9.216c-1.056,2.624-2.528,4.768-4.416,6.416
		c-1.888,1.664-4.176,2.928-6.864,3.744c-2.688,0.816-5.664,1.264-8.928,1.264h-7.392v27.36H36.8v-68.544L60.992,117.856z
		 M56.768,148.896c2.752,0,4.992-0.848,6.672-2.512c1.696-1.664,2.544-4.256,2.544-7.776c0-3.456-0.736-6.08-2.208-7.872
		c-1.472-1.776-3.936-2.688-7.392-2.688h-5.76v20.848L56.768,148.896L56.768,148.896z"/>
	<path style="fill:#FFFFFF;" d="M120.416,117.856c3.52,0,6.464,0.592,8.88,1.776c2.416,1.184,4.336,2.736,5.808,4.656
		c1.472,1.92,2.528,4.112,3.168,6.576c0.624,2.448,0.96,4.976,0.96,7.536c0,3.52-0.528,6.592-1.584,9.216
		c-1.056,2.624-2.528,4.768-4.416,6.416c-1.888,1.664-4.176,2.928-6.864,3.744c-2.688,0.816-5.664,1.264-8.928,1.264h-7.392v27.36
		H96.224v-68.544L120.416,117.856z M116.192,148.896c2.752,0,4.992-0.848,6.672-2.512c1.696-1.664,2.544-4.256,2.544-7.776
		c0-3.456-0.736-6.08-2.208-7.872c-1.472-1.776-3.936-2.688-7.392-2.688h-5.76v20.848L116.192,148.896L116.192,148.896z"/>
	<path style="fill:#FFFFFF;" d="M195.776,129.184H180.8V186.4h-13.824v-57.216H152v-11.328h43.776V129.184z"/>
</g>
<g>
</g>
<g>
</g>
<g>
</g>
<g>
</g>
<g>
</g>
<g>
</g>
<g>
</g>
<g>
</g>
<g>
</g>
<g>
</g>
<g>
</g>
<g>
</g>
<g>
</g>
<g>
</g>
<g>
</g>
</svg>
