<?xml version="1.0" encoding="iso-8859-1"?>
<!-- Generator: Adobe Illustrator 19.0.0, SVG Export Plug-In . SVG Version: 6.00 Build 0)  -->
<svg version="1.1" id="Capa_1" xmlns="http://www.w3.org/2000/svg" xmlns:xlink="http://www.w3.org/1999/xlink" x="0px" y="0px"
	 viewBox="0 0 384 384" style="enable-background:new 0 0 384 384;" xml:space="preserve">
<linearGradient id="SVGID_1_" gradientUnits="userSpaceOnUse" x1="-88.1382" y1="547.1918" x2="-35.2872" y2="494.3498" gradientTransform="matrix(8 0 0 -8 814.408 4454.856)">
	<stop  offset="0" style="stop-color:#EFEEEE"/>
	<stop  offset="1" style="stop-color:#DEDEDD"/>
</linearGradient>
<polygon style="fill:url(#SVGID_1_);" points="64,0 64,384 288,384 384,288 384,0 "/>
<polygon style="fill:#ABABAB;" points="288,288 288,384 384,288 "/>
<polygon style="fill:#DEDEDD;" points="192,384 288,384 288,288 "/>
<path style="fill:#8DB945;" d="M0,96v112h256V96L0,96L0,96z"/>
<g>
	<path style="fill:#010101;" d="M67.808,186.4c-2.56,0.704-5.616,1.056-9.12,1.056c-5.168,0-9.312-0.848-12.368-2.496
		c-3.072-1.664-5.424-4.064-7.056-7.2c-1.632-3.136-2.688-6.88-3.168-11.232c-0.464-4.336-0.72-9.152-0.72-14.384
		c0-5.184,0.256-9.968,0.72-14.352c0.48-4.368,1.552-8.144,3.168-11.28c1.648-3.12,3.984-5.584,7.056-7.344
		c3.056-1.744,7.2-2.64,12.368-2.64c5.184,0,9.312,0.896,12.384,2.64c3.056,1.76,5.424,4.224,7.04,7.344
		c1.648,3.136,2.688,6.912,3.168,11.28c0.48,4.384,0.72,9.168,0.72,14.352c0,5.808-0.32,11.088-0.96,15.824
		c-0.64,4.752-2.08,8.736-4.336,12l7.392,7.2l-8.16,7.392L67.808,186.4z M49.536,163.888c0.224,3.232,0.672,5.856,1.344,7.872
		s1.632,3.488,2.88,4.416c1.248,0.928,2.896,1.392,4.944,1.392s3.696-0.464,4.96-1.392c1.248-0.944,2.208-2.4,2.88-4.416
		c0.672-2.016,1.12-4.64,1.344-7.872s0.336-7.136,0.336-11.744s-0.128-8.512-0.336-11.712s-0.672-5.824-1.344-7.872
		s-1.632-3.536-2.88-4.448c-1.248-0.944-2.912-1.408-4.96-1.408s-3.68,0.464-4.944,1.408c-1.248,0.928-2.208,2.4-2.88,4.448
		s-1.12,4.672-1.344,7.872c-0.24,3.2-0.336,7.104-0.336,11.712S49.296,160.656,49.536,163.888z"/>
	<path style="fill:#010101;" d="M112.176,117.856l8.832,22.176l8.736-22.176H144.8l-15.92,33.888l17.072,34.656H130.4l-9.888-23.232
		L110.72,186.4H95.568l17.072-34.656l-15.728-33.888L112.176,117.856z"/>
	<path style="fill:#010101;" d="M184.256,117.84c4.816,0,8.672,0.8,11.632,2.368c2.944,1.568,5.232,3.792,6.864,6.72
		c1.648,2.912,2.736,6.4,3.312,10.512c0.576,4.096,0.864,8.672,0.864,13.712c0,6.016-0.352,11.248-1.088,15.696
		c-0.736,4.432-2,8.112-3.792,10.992c-1.792,2.896-4.192,5.024-7.2,6.432c-3.008,1.408-6.816,2.112-11.424,2.112H161.6V117.84
		L184.256,117.84L184.256,117.84z M181.568,176.24c2.432,0,4.384-0.416,5.856-1.248c1.472-0.832,2.64-2.208,3.504-4.128
		c0.88-1.92,1.456-4.448,1.728-7.6c0.288-3.12,0.432-7.024,0.432-11.696c0-3.904-0.144-7.328-0.384-10.288
		c-0.256-2.944-0.784-5.392-1.584-7.344c-0.816-1.952-1.984-3.424-3.568-4.4c-1.568-0.992-3.664-1.504-6.288-1.504h-5.856v48.208
		L181.568,176.24z"/>
</g>
<g>
</g>
<g>
</g>
<g>
</g>
<g>
</g>
<g>
</g>
<g>
</g>
<g>
</g>
<g>
</g>
<g>
</g>
<g>
</g>
<g>
</g>
<g>
</g>
<g>
</g>
<g>
</g>
<g>
</g>
</svg>
