<?xml version="1.0" encoding="iso-8859-1"?>
<!-- Generator: Adobe Illustrator 19.0.0, SVG Export Plug-In . SVG Version: 6.00 Build 0)  -->
<svg version="1.1" id="Capa_1" xmlns="http://www.w3.org/2000/svg" xmlns:xlink="http://www.w3.org/1999/xlink" x="0px" y="0px"
	 viewBox="0 0 384 384" style="enable-background:new 0 0 384 384;" xml:space="preserve">
<linearGradient id="SVGID_1_" gradientUnits="userSpaceOnUse" x1="-91.8312" y1="547.1898" x2="-38.9842" y2="494.3478" gradientTransform="matrix(8 0 0 -8 843.976 4454.856)">
	<stop  offset="0" style="stop-color:#EFEEEE"/>
	<stop  offset="1" style="stop-color:#DEDEDD"/>
</linearGradient>
<polygon style="fill:url(#SVGID_1_);" points="64,0 64,384 288,384 384,288 384,0 "/>
<polygon style="fill:#ABABAB;" points="288,288 288,384 384,288 "/>
<polygon style="fill:#DEDEDD;" points="192,384 288,384 288,288 "/>
<path style="fill:#682767;" d="M0,96v112h256V96L0,96L0,96z"/>
<g>
	<path style="fill:#FFFFFF;" d="M62.336,117.856c5.744,0,10.24,1.472,13.44,4.384s4.8,7.344,4.8,13.296
		c0,4.608-0.928,8.352-2.784,11.28c-1.856,2.912-4.736,4.784-8.64,5.616v0.192c3.456,0.512,5.984,1.648,7.584,3.36
		c1.616,1.728,2.592,4.512,2.992,8.352c0.112,1.28,0.208,2.672,0.272,4.176c0.064,1.504,0.128,3.184,0.208,5.04
		c0.128,3.648,0.32,6.416,0.56,8.336c0.384,1.92,1.216,3.232,2.496,3.936v0.576h-14.96c-0.704-0.96-1.152-2.064-1.344-3.312
		c-0.208-1.248-0.336-2.544-0.384-3.888l-0.368-13.152c-0.144-2.688-0.816-4.8-2.032-6.336c-1.2-1.536-3.248-2.304-6.144-2.304
		h-7.408V186.4H36.8v-68.544L62.336,117.856L62.336,117.856z M56.384,147.824c3.328,0,5.888-0.784,7.664-2.336
		c1.792-1.584,2.688-4.224,2.688-7.92c0-6.336-3.184-9.52-9.6-9.52h-6.512v19.776H56.384z"/>
	<path style="fill:#FFFFFF;" d="M126.368,117.872l18.144,68.544h-14.4l-3.168-14.496h-18.24l-3.168,14.496h-14.4l18.144-68.544
		H126.368z M124.544,160.592l-6.624-30.816h-0.192l-6.624,30.816H124.544z"/>
	<path style="fill:#FFFFFF;" d="M180.608,117.856c5.76,0,10.256,1.472,13.44,4.384c3.2,2.912,4.816,7.344,4.816,13.296
		c0,4.608-0.944,8.352-2.8,11.28c-1.84,2.912-4.736,4.784-8.64,5.616v0.192c3.472,0.512,5.984,1.648,7.6,3.36
		c1.6,1.728,2.592,4.512,2.976,8.352c0.128,1.28,0.24,2.672,0.304,4.176s0.128,3.184,0.192,5.04c0.128,3.648,0.32,6.416,0.576,8.336
		c0.368,1.92,1.216,3.232,2.496,3.936v0.576H186.56c-0.704-0.96-1.152-2.064-1.344-3.312c-0.192-1.248-0.32-2.544-0.368-3.888
		l-0.384-13.152c-0.128-2.688-0.8-4.8-2.016-6.336c-1.216-1.536-3.264-2.304-6.144-2.304h-7.392V186.4h-13.824v-68.544
		L180.608,117.856L180.608,117.856z M174.656,147.824c3.328,0,5.888-0.784,7.68-2.336c1.776-1.584,2.688-4.224,2.688-7.92
		c0-6.336-3.2-9.52-9.616-9.52h-6.512v19.776H174.656z"/>
</g>
<g>
</g>
<g>
</g>
<g>
</g>
<g>
</g>
<g>
</g>
<g>
</g>
<g>
</g>
<g>
</g>
<g>
</g>
<g>
</g>
<g>
</g>
<g>
</g>
<g>
</g>
<g>
</g>
<g>
</g>
</svg>
