<?xml version="1.0" encoding="iso-8859-1"?>
<!-- Generator: Adobe Illustrator 19.0.0, SVG Export Plug-In . SVG Version: 6.00 Build 0)  -->
<svg version="1.1" id="Capa_1" xmlns="http://www.w3.org/2000/svg" xmlns:xlink="http://www.w3.org/1999/xlink" x="0px" y="0px"
	 viewBox="0 0 384 384" style="enable-background:new 0 0 384 384;" xml:space="preserve">
<polygon style="fill:#EFEEEE;" points="64,0 64,384 288,384 384,288 384,0 "/>
<polygon style="fill:#ABABAB;" points="288,288 288,384 384,288 "/>
<polygon style="fill:#DEDEDD;" points="192,384 288,384 288,288 "/>
<path style="fill:#CB5641;" d="M0,96v112h256V96L0,96L0,96z"/>
<g>
	<path style="fill:#FFFFFF;" d="M62.336,117.856c5.744,0,10.24,1.456,13.44,4.368s4.8,7.344,4.8,13.296
		c0,4.608-0.928,8.352-2.784,11.28c-1.856,2.912-4.736,4.784-8.64,5.616v0.192c3.456,0.512,5.984,1.648,7.584,3.36
		c1.616,1.728,2.592,4.512,2.992,8.352c0.112,1.296,0.208,2.688,0.272,4.176c0.064,1.488,0.128,3.184,0.208,5.04
		c0.128,3.648,0.32,6.416,0.56,8.336c0.384,1.92,1.216,3.232,2.496,3.936v0.576h-14.96c-0.704-0.96-1.152-2.064-1.344-3.312
		c-0.208-1.232-0.336-2.528-0.4-3.872l-0.368-13.152c-0.144-2.688-0.816-4.8-2.032-6.336c-1.2-1.536-3.248-2.304-6.144-2.304h-7.392
		V186.4H36.8v-68.544L62.336,117.856z M56.384,147.808c3.328,0,5.888-0.784,7.664-2.336c1.792-1.584,2.688-4.224,2.688-7.92
		c0-6.336-3.184-9.52-9.6-9.52h-6.512v19.776H56.384z"/>
	<path style="fill:#FFFFFF;" d="M122.928,117.84c2.816,0,5.424,0.32,7.808,0.88c2.4,0.576,4.464,1.552,6.208,2.896
		c1.712,1.344,3.056,3.136,4.032,5.376c0.96,2.24,1.44,4.992,1.44,8.256c0,3.712-0.864,6.912-2.592,9.568s-4.32,4.448-7.776,5.424
		v0.16c3.84,0.512,6.896,2.144,9.12,4.896c2.24,2.768,3.36,6.432,3.36,11.04c0,2.688-0.352,5.248-1.056,7.664
		c-0.704,2.432-1.888,4.56-3.6,6.384s-3.904,3.28-6.624,4.368c-2.72,1.072-6.096,1.632-10.128,1.632H99.776V117.84L122.928,117.84
		L122.928,117.84z M117.552,145.968c3.824,0,6.624-0.672,8.384-2.048s2.64-3.68,2.64-6.96s-0.8-5.584-2.384-6.928
		c-1.616-1.344-4.144-2.016-7.6-2.016h-4.976v17.952L117.552,145.968L117.552,145.968z M118.992,176.24
		c3.328,0,6.016-0.736,8.064-2.224c2.048-1.472,3.056-4.192,3.056-8.16c0-1.984-0.272-3.632-0.816-4.944
		c-0.544-1.312-1.28-2.368-2.208-3.168c-0.944-0.8-2.032-1.36-3.312-1.68c-1.28-0.32-2.688-0.464-4.224-0.464h-5.936v20.64H118.992z
		"/>
</g>
<g>
</g>
<g>
</g>
<g>
</g>
<g>
</g>
<g>
</g>
<g>
</g>
<g>
</g>
<g>
</g>
<g>
</g>
<g>
</g>
<g>
</g>
<g>
</g>
<g>
</g>
<g>
</g>
<g>
</g>
</svg>
