<?xml version="1.0" encoding="iso-8859-1"?>
<!-- Generator: Adobe Illustrator 19.0.0, SVG Export Plug-In . SVG Version: 6.00 Build 0)  -->
<svg version="1.1" id="Capa_1" xmlns="http://www.w3.org/2000/svg" xmlns:xlink="http://www.w3.org/1999/xlink" x="0px" y="0px"
	 viewBox="0 0 384 384" style="enable-background:new 0 0 384 384;" xml:space="preserve">
<polygon style="fill:#EFEEEE;" points="64,0 64,384 288,384 384,288 384,0 "/>
<polygon style="fill:#ABABAB;" points="288,288 288,384 384,288 "/>
<polygon style="fill:#DEDEDD;" points="192,384 288,384 288,288 "/>
<path style="fill:#527DA1;" d="M0,96v112h256V96H0z"/>
<g>
	<path style="fill:#FFFFFF;" d="M54.624,167.024c0,1.6,0.112,3.056,0.368,4.352c0.256,1.312,0.72,2.416,1.44,3.312
		c0.688,0.912,1.648,1.616,2.832,2.128c1.168,0.496,2.672,0.768,4.448,0.768c2.128,0,4.032-0.688,5.712-2.064
		c1.68-1.376,2.544-3.52,2.544-6.384c0-1.536-0.208-2.864-0.624-3.984s-1.104-2.128-2.064-3.008c-0.96-0.912-2.24-1.712-3.792-2.448
		c-1.552-0.736-3.504-1.488-5.808-2.256c-3.056-1.024-5.712-2.16-7.968-3.376c-2.24-1.2-4.096-2.624-5.616-4.272
		c-1.504-1.632-2.608-3.52-3.312-5.664c-0.704-2.16-1.04-4.624-1.04-7.456c0-6.784,1.872-11.824,5.664-15.152
		s8.976-4.992,15.568-4.992c3.056,0,5.904,0.336,8.48,1.008c2.592,0.672,4.832,1.744,6.736,3.264c1.872,1.504,3.344,3.424,4.4,5.744
		c1.056,2.336,1.6,5.136,1.6,8.4v1.92H70.944c0-3.264-0.592-5.776-1.728-7.552c-1.152-1.744-3.072-2.64-5.76-2.64
		c-1.536,0-2.816,0.24-3.84,0.672c-1.008,0.448-1.84,1.04-2.432,1.776c-0.624,0.736-1.024,1.584-1.248,2.544
		c-0.224,0.96-0.336,1.952-0.336,2.976c0,2.128,0.448,3.888,1.344,5.328c0.912,1.456,2.816,2.784,5.76,3.984l10.656,4.608
		c2.624,1.152,4.768,2.352,6.416,3.616c1.664,1.248,3.008,2.592,4,4.032s1.664,3.008,2.064,4.752c0.368,1.712,0.56,3.648,0.56,5.744
		c0,7.232-2.096,12.496-6.288,15.792s-10.032,4.96-17.52,4.96c-7.808,0-13.392-1.696-16.768-5.088
		c-3.344-3.392-5.024-8.256-5.024-14.592v-2.784h13.824L54.624,167.024L54.624,167.024z"/>
	<path style="fill:#FFFFFF;" d="M130.064,186.416c-2.56,0.704-5.6,1.056-9.12,1.056c-5.168,0-9.312-0.848-12.368-2.496
		c-3.056-1.664-5.424-4.064-7.056-7.2c-1.632-3.136-2.688-6.88-3.152-11.232c-0.48-4.336-0.72-9.152-0.72-14.384
		c0-5.184,0.24-9.968,0.72-14.352c0.464-4.368,1.536-8.144,3.152-11.28c1.648-3.12,4-5.584,7.056-7.344
		c3.056-1.744,7.2-2.64,12.368-2.64c5.184,0,9.312,0.896,12.384,2.64c3.072,1.76,5.424,4.224,7.04,7.344
		c1.648,3.136,2.688,6.912,3.184,11.28c0.464,4.384,0.72,9.168,0.72,14.352c0,5.808-0.336,11.088-0.976,15.824
		c-0.64,4.752-2.08,8.736-4.32,12l7.376,7.2l-8.16,7.392L130.064,186.416z M111.776,163.904c0.224,3.232,0.672,5.856,1.344,7.872
		s1.632,3.488,2.88,4.416c1.248,0.928,2.912,1.392,4.944,1.392c2.064,0,3.696-0.464,4.96-1.392c1.248-0.944,2.208-2.4,2.896-4.416
		c0.656-2.016,1.104-4.64,1.344-7.872c0.224-3.232,0.336-7.136,0.336-11.744s-0.112-8.512-0.336-11.712
		c-0.24-3.2-0.688-5.824-1.344-7.872c-0.688-2.048-1.648-3.536-2.896-4.448c-1.248-0.944-2.896-1.408-4.96-1.408
		c-2.032,0-3.68,0.464-4.944,1.408c-1.248,0.928-2.208,2.4-2.88,4.448s-1.12,4.656-1.344,7.856c-0.224,3.2-0.336,7.104-0.336,11.712
		S111.568,160.672,111.776,163.904z"/>
	<path style="fill:#FFFFFF;" d="M158.176,117.872h13.84v57.216h24.48v11.328h-38.32V117.872z"/>
</g>
<g>
</g>
<g>
</g>
<g>
</g>
<g>
</g>
<g>
</g>
<g>
</g>
<g>
</g>
<g>
</g>
<g>
</g>
<g>
</g>
<g>
</g>
<g>
</g>
<g>
</g>
<g>
</g>
<g>
</g>
</svg>
