<?xml version="1.0" encoding="iso-8859-1"?>
<!-- Generator: Adobe Illustrator 19.0.0, SVG Export Plug-In . SVG Version: 6.00 Build 0)  -->
<svg version="1.1" id="Capa_1" xmlns="http://www.w3.org/2000/svg" xmlns:xlink="http://www.w3.org/1999/xlink" x="0px" y="0px"
	 viewBox="0 0 384 384" style="enable-background:new 0 0 384 384;" xml:space="preserve">
<linearGradient id="SVGID_1_" gradientUnits="userSpaceOnUse" x1="-89.7993" y1="548.9443" x2="-36.9513" y2="496.0983" gradientTransform="matrix(8 0 0 -8 827.7248 4468.8887)">
	<stop  offset="0" style="stop-color:#EFEEEE"/>
	<stop  offset="1" style="stop-color:#DEDEDD"/>
</linearGradient>
<polygon style="fill:url(#SVGID_1_);" points="64,0 64,384 288,384 384,288 384,0 "/>
<polygon style="fill:#ABABAB;" points="288,288 288,384 384,288 "/>
<polygon style="fill:#DEDEDD;" points="192,384 288,384 288,288 "/>
<path style="fill:#CB5641;" d="M0,96v112h256V96L0,96L0,96z"/>
<g>
	<path style="fill:#FFFFFF;" d="M47.904,167.008c0,1.6,0.16,3.056,0.416,4.352c0.256,1.312,0.736,2.416,1.44,3.312
		c0.704,0.912,1.648,1.616,2.832,2.128c1.184,0.496,2.672,0.768,4.464,0.768c2.112,0,4.016-0.688,5.696-2.064
		c1.696-1.376,2.544-3.52,2.544-6.384c0-1.536-0.208-2.864-0.624-3.984c-0.4-1.12-1.088-2.128-2.064-3.008
		c-0.96-0.912-2.224-1.712-3.792-2.448c-1.568-0.736-3.504-1.488-5.792-2.256c-3.072-1.024-5.728-2.16-7.968-3.376
		c-2.256-1.2-4.112-2.624-5.632-4.272c-1.504-1.632-2.608-3.52-3.312-5.664c-0.704-2.16-1.04-4.624-1.04-7.456
		c0-6.784,1.888-11.824,5.664-15.152s8.976-4.992,15.568-4.992c3.056,0,5.904,0.336,8.48,1.008c2.592,0.672,4.848,1.744,6.736,3.264
		c1.872,1.504,3.36,3.424,4.4,5.744c1.056,2.336,1.6,5.136,1.6,8.4v1.92H64.272c0-3.264-0.576-5.776-1.728-7.552
		c-1.152-1.744-3.072-2.64-5.76-2.64c-1.536,0-2.816,0.24-3.824,0.672c-1.024,0.448-1.84,1.04-2.448,1.776
		c-0.608,0.736-1.056,1.616-1.28,2.576c-0.224,0.96-0.336,1.952-0.336,2.976c0,2.128,0.432,3.888,1.344,5.328
		c0.896,1.456,2.816,2.784,5.744,3.984l10.656,4.608c2.624,1.152,4.768,2.352,6.432,3.616c1.664,1.248,2.992,2.592,3.984,4.032
		s1.664,3.008,2.064,4.752c0.384,1.712,0.576,3.648,0.576,5.744c0,7.232-2.096,12.496-6.304,15.792
		c-4.192,3.296-10.032,4.96-17.52,4.96c-7.808,0-13.392-1.696-16.752-5.088s-5.04-8.256-5.04-14.592v-2.784h13.824L47.904,167.008
		L47.904,167.008z"/>
	<path style="fill:#FFFFFF;" d="M116.192,168.544h0.288l10.176-50.688h14.32l-15.76,68.544h-17.76l-15.728-68.544h14.784
		L116.192,168.544z"/>
	<path style="fill:#FFFFFF;" d="M185.648,134.288c-0.288-1.344-0.752-2.576-1.392-3.696c-0.64-1.104-1.456-2.048-2.432-2.784
		c-0.992-0.736-2.208-1.104-3.616-1.104c-3.328,0-5.712,1.856-7.2,5.584c-1.472,3.696-2.208,9.856-2.208,18.416
		c0,4.112,0.128,7.808,0.384,11.136s0.72,6.16,1.392,8.496s1.632,4.128,2.88,5.376c1.248,1.248,2.864,1.872,4.848,1.872
		c0.848,0,1.744-0.24,2.752-0.672c0.992-0.448,1.904-1.12,2.784-2.016c0.864-0.912,1.584-2.032,2.16-3.408s0.864-3.008,0.864-4.864
		v-7.008h-9.104V149.44h22.352v36.96H189.92v-6.336h-0.192c-1.664,2.704-3.664,4.592-6,5.712c-2.336,1.12-5.136,1.68-8.4,1.68
		c-4.224,0-7.664-0.752-10.336-2.224c-2.656-1.472-4.736-3.728-6.24-6.816c-1.504-3.088-2.512-6.864-3.008-11.376
		c-0.512-4.512-0.784-9.744-0.784-15.696c0-5.744,0.368-10.816,1.104-15.152c0.736-4.352,2-7.984,3.792-10.912
		c1.776-2.912,4.16-5.088,7.088-6.576c2.96-1.472,6.624-2.208,11.04-2.208c7.552,0,12.992,1.872,16.32,5.632
		c3.328,3.728,4.992,9.088,4.992,16.08H186.08C186.08,136.944,185.936,135.632,185.648,134.288z"/>
</g>
<g>
</g>
<g>
</g>
<g>
</g>
<g>
</g>
<g>
</g>
<g>
</g>
<g>
</g>
<g>
</g>
<g>
</g>
<g>
</g>
<g>
</g>
<g>
</g>
<g>
</g>
<g>
</g>
<g>
</g>
</svg>
