<?xml version="1.0" encoding="iso-8859-1"?>
<!-- Generator: Adobe Illustrator 19.0.0, SVG Export Plug-In . SVG Version: 6.00 Build 0)  -->
<svg version="1.1" id="Capa_1" xmlns="http://www.w3.org/2000/svg" xmlns:xlink="http://www.w3.org/1999/xlink" x="0px" y="0px"
	 viewBox="0 0 384 384" style="enable-background:new 0 0 384 384;" xml:space="preserve">
<linearGradient id="SVGID_1_" gradientUnits="userSpaceOnUse" x1="-89.7993" y1="548.9443" x2="-36.9513" y2="496.0983" gradientTransform="matrix(8 0 0 -8 827.7248 4468.8887)">
	<stop  offset="0" style="stop-color:#EFEEEE"/>
	<stop  offset="1" style="stop-color:#DEDEDD"/>
</linearGradient>
<polygon style="fill:url(#SVGID_1_);" points="64,0 64,384 288,384 384,288 384,0 "/>
<polygon style="fill:#ABABAB;" points="288,288 288,384 384,288 "/>
<polygon style="fill:#DEDEDD;" points="192,384 288,384 288,288 "/>
<path style="fill:#CB5641;" d="M0,96v112h256V96L0,96L0,96z"/>
<g>
	<path style="fill:#FFFFFF;" d="M76.928,129.184H61.952V186.4H48.128v-57.216H33.152v-11.328h43.776L76.928,129.184L76.928,129.184z
		"/>
	<path style="fill:#FFFFFF;" d="M117.648,117.856l18.144,68.544h-14.4l-3.168-14.496h-18.24L96.8,186.4H82.4l18.144-68.544H117.648z
		 M115.808,160.576l-6.624-30.816h-0.192l-6.624,30.816H115.808z"/>
	<path style="fill:#FFFFFF;" d="M175.712,117.84c5.744,0,10.24,1.472,13.44,4.384c3.2,2.912,4.8,7.344,4.8,13.296
		c0,4.608-0.928,8.352-2.784,11.28c-1.856,2.912-4.736,4.784-8.64,5.616v0.192c3.456,0.512,5.984,1.648,7.584,3.36
		c1.616,1.728,2.592,4.512,2.992,8.352c0.128,1.28,0.224,2.672,0.288,4.176s0.128,3.184,0.208,5.04
		c0.128,3.648,0.32,6.416,0.56,8.336c0.384,1.92,1.216,3.232,2.496,3.936v0.576H181.68c-0.704-0.96-1.152-2.064-1.344-3.312
		c-0.208-1.248-0.336-2.544-0.384-3.888l-0.368-13.152c-0.144-2.688-0.816-4.8-2.032-6.336c-1.2-1.536-3.248-2.304-6.144-2.304H164
		v28.992h-13.824V117.84L175.712,117.84L175.712,117.84z M169.76,147.808c3.328,0,5.888-0.784,7.664-2.336
		c1.792-1.584,2.688-4.224,2.688-7.92c0-6.336-3.184-9.52-9.6-9.52H164v19.776H169.76z"/>
</g>
<g>
</g>
<g>
</g>
<g>
</g>
<g>
</g>
<g>
</g>
<g>
</g>
<g>
</g>
<g>
</g>
<g>
</g>
<g>
</g>
<g>
</g>
<g>
</g>
<g>
</g>
<g>
</g>
<g>
</g>
</svg>
