<?xml version="1.0" encoding="iso-8859-1"?>
<!-- Generator: Adobe Illustrator 19.0.0, SVG Export Plug-In . SVG Version: 6.00 Build 0)  -->
<svg version="1.1" id="Capa_1" xmlns="http://www.w3.org/2000/svg" xmlns:xlink="http://www.w3.org/1999/xlink" x="0px" y="0px"
	 viewBox="0 0 384 384" style="enable-background:new 0 0 384 384;" xml:space="preserve">
<polygon style="fill:#EFEEEE;" points="64,0 64,384 288,384 384,288 384,0 "/>
<polygon style="fill:#ABABAB;" points="288,288 288,384 384,288 "/>
<polygon style="fill:#DEDEDD;" points="192,384 288,384 288,288 "/>
<path style="fill:#15498A;" d="M0,96v112h256V96L0,96L0,96z"/>
<g>
	<path style="fill:#FFFFFF;" d="M76.928,129.184H61.952V186.4H48.128v-57.216H33.152v-11.328h43.776V129.184z"/>
	<path style="fill:#FFFFFF;" d="M104.88,117.856l8.832,22.176l8.736-22.176h15.056l-15.92,33.888l17.072,34.656h-15.552
		l-9.888-23.232l-9.792,23.232H88.272l17.072-34.656l-15.728-33.888H104.88z"/>
	<path style="fill:#FFFFFF;" d="M193.76,129.184h-14.992V186.4H164.96v-57.216h-14.976v-11.328h43.776V129.184z"/>
</g>
<g>
</g>
<g>
</g>
<g>
</g>
<g>
</g>
<g>
</g>
<g>
</g>
<g>
</g>
<g>
</g>
<g>
</g>
<g>
</g>
<g>
</g>
<g>
</g>
<g>
</g>
<g>
</g>
<g>
</g>
</svg>
