<?xml version="1.0" encoding="iso-8859-1"?>
<!-- Generator: Adobe Illustrator 19.0.0, SVG Export Plug-In . SVG Version: 6.00 Build 0)  -->
<svg version="1.1" id="Capa_1" xmlns="http://www.w3.org/2000/svg" xmlns:xlink="http://www.w3.org/1999/xlink" x="0px" y="0px"
	 viewBox="0 0 384 384" style="enable-background:new 0 0 384 384;" xml:space="preserve">
<linearGradient id="SVGID_1_" gradientUnits="userSpaceOnUse" x1="-89.2033" y1="549.3303" x2="-36.3633" y2="496.4803" gradientTransform="matrix(8 0 0 -8 822.976 4471.9702)">
	<stop  offset="0" style="stop-color:#EFEEEE"/>
	<stop  offset="1" style="stop-color:#DEDEDD"/>
</linearGradient>
<polygon style="fill:url(#SVGID_1_);" points="64,0 64,384 288,384 384,288 384,0 "/>
<polygon style="fill:#ABABAB;" points="288,288 288,384 384,288 "/>
<polygon style="fill:#DEDEDD;" points="192,384 288,384 288,288 "/>
<path style="fill:#663694;" d="M0,96v112h256V96L0,96L0,96z"/>
<g>
	<path style="fill:#FFFFFF;" d="M39.904,117.856l7.6,50.688h0.176l8.064-50.688h13.248l8.064,50.688h0.192l7.6-50.688h13.248
		L85.6,186.4H70.16l-7.68-49.728h-0.192l-7.68,49.728H39.136l-12.48-68.544H39.904z"/>
	<path style="fill:#FFFFFF;" d="M140.032,117.856l18.16,68.544h-14.4l-3.168-14.496h-18.24L119.2,186.4h-14.384l18.128-68.544
		H140.032z M138.224,160.576L131.6,129.76h-0.192l-6.624,30.816H138.224z"/>
	<path style="fill:#FFFFFF;" d="M188.704,168.544h0.304l10.176-50.688h14.304L197.744,186.4H180l-15.744-68.544h14.784
		L188.704,168.544z"/>
</g>
<g>
</g>
<g>
</g>
<g>
</g>
<g>
</g>
<g>
</g>
<g>
</g>
<g>
</g>
<g>
</g>
<g>
</g>
<g>
</g>
<g>
</g>
<g>
</g>
<g>
</g>
<g>
</g>
<g>
</g>
</svg>
