<?xml version="1.0" encoding="iso-8859-1"?>
<!-- Generator: Adobe Illustrator 19.0.0, SVG Export Plug-In . SVG Version: 6.00 Build 0)  -->
<svg version="1.1" id="Capa_1" xmlns="http://www.w3.org/2000/svg" xmlns:xlink="http://www.w3.org/1999/xlink" x="0px" y="0px"
	 viewBox="0 0 384 384" style="enable-background:new 0 0 384 384;" xml:space="preserve">
<linearGradient id="SVGID_1_" gradientUnits="userSpaceOnUse" x1="-86.8246" y1="549.3311" x2="-33.9826" y2="496.481" gradientTransform="matrix(8 0 0 -8 803.9359 4471.9702)">
	<stop  offset="0" style="stop-color:#EFEEEE"/>
	<stop  offset="1" style="stop-color:#DEDEDD"/>
</linearGradient>
<polygon style="fill:url(#SVGID_1_);" points="64,0 64,384 288,384 384,288 384,0 "/>
<polygon style="fill:#ABABAB;" points="288,288 288,384 384,288 "/>
<polygon style="fill:#DEDEDD;" points="192,384 288,384 288,288 "/>
<path style="fill:#CB5641;" d="M0,96v112h256V96L0,96L0,96z"/>
<g>
	<path style="fill:#FFFFFF;" d="M35.344,117.856l7.6,50.688h0.192l8.064-50.688h13.248l8.064,50.688h0.192l7.6-50.688h13.248
		L81.072,186.4H65.6l-7.68-49.728h-0.208l-7.68,49.728h-15.44l-12.496-68.544H35.344z"/>
	<path style="fill:#FFFFFF;" d="M129.536,117.856l9.776,48.384h0.208l9.888-48.384h20.432V186.4h-12.656v-54.72h-0.208
		l-12.192,54.72h-10.768l-12.192-54.72h-0.16v54.72h-12.672v-68.544H129.536z"/>
	<path style="fill:#FFFFFF;" d="M209.296,168.544h0.304l10.176-50.688h14.304L218.336,186.4h-17.744l-15.744-68.544h14.784
		L209.296,168.544z"/>
</g>
<g>
</g>
<g>
</g>
<g>
</g>
<g>
</g>
<g>
</g>
<g>
</g>
<g>
</g>
<g>
</g>
<g>
</g>
<g>
</g>
<g>
</g>
<g>
</g>
<g>
</g>
<g>
</g>
<g>
</g>
</svg>
