<?xml version="1.0" encoding="iso-8859-1"?>
<!-- Generator: Adobe Illustrator 19.0.0, SVG Export Plug-In . SVG Version: 6.00 Build 0)  -->
<svg version="1.1" id="Capa_1" xmlns="http://www.w3.org/2000/svg" xmlns:xlink="http://www.w3.org/1999/xlink" x="0px" y="0px"
	 viewBox="0 0 384 384" style="enable-background:new 0 0 384 384;" xml:space="preserve">
<polygon style="fill:#EFEEEE;" points="64,0 64,384 288,384 384,288 384,0 "/>
<polygon style="fill:#ABABAB;" points="288,288 288,384 384,288 "/>
<polygon style="fill:#DEDEDD;" points="192,384 288,384 288,288 "/>
<path style="fill:#CB5641;" d="M0,96v112h256V96H0z"/>
<g>
	<path style="fill:#FFFFFF;" d="M49.184,117.856l8.832,22.176l8.736-22.176h15.072l-15.936,33.888L82.976,186.4H67.424
		l-9.872-23.232L47.744,186.4H32.576l17.088-34.656L33.92,117.856L49.184,117.856L49.184,117.856z"/>
	<path style="fill:#FFFFFF;" d="M118.784,117.856l9.792,48.384h0.192l9.888-48.384h20.448V186.4h-12.672v-54.72h-0.192
		l-12.192,54.72h-10.752l-12.192-54.72h-0.192v54.72H98.24v-68.544L118.784,117.856z"/>
	<path style="fill:#FFFFFF;" d="M178.576,117.856h13.84v57.216h24.464V186.4h-38.304V117.856z"/>
</g>
<g>
</g>
<g>
</g>
<g>
</g>
<g>
</g>
<g>
</g>
<g>
</g>
<g>
</g>
<g>
</g>
<g>
</g>
<g>
</g>
<g>
</g>
<g>
</g>
<g>
</g>
<g>
</g>
<g>
</g>
</svg>
